<svg xmlns="http://www.w3.org/2000/svg" width="1024" height="1024" viewBox="0 0 1024 1024">
<rect x="0" y="0" width="1024" height="1024" rx="184" ry="184" fill="#111111"/>
<path d="M 855.97 512.00 L 857.15 515.01 L 858.28 518.04 L 859.36 521.10 L 860.38 524.17 L 861.35 527.25 L 862.25 530.36 L 863.09 533.47 L 863.85 536.60 L 864.54 539.75 L 865.15 542.90 L 865.68 546.06 L 866.12 549.22 L 866.47 552.39 L 866.74 555.56 L 866.91 558.72 L 866.98 561.89 L 866.96 565.05 L 866.85 568.20 L 866.63 571.34 L 866.31 574.47 L 865.90 577.59 L 865.38 580.69 L 864.76 583.77 L 864.04 586.83 L 863.23 589.87 L 862.31 592.88 L 861.30 595.86 L 860.20 598.82 L 859.00 601.74 L 857.71 604.63 L 856.33 607.49 L 854.87 610.32 L 853.32 613.10 L 851.70 615.86 L 849.99 618.57 L 848.22 621.24 L 846.38 623.88 L 844.47 626.48 L 842.50 629.04 L 840.47 631.56 L 838.40 634.04 L 836.27 636.48 L 834.10 638.88 L 831.90 641.25 L 829.66 643.58 L 827.39 645.87 L 825.09 648.14 L 822.78 650.37 L 820.45 652.57 L 818.11 654.74 L 815.76 656.88 L 813.41 659.01 L 811.06 661.10 L 808.71 663.18 L 806.38 665.24 L 804.06 667.29 L 801.76 669.32 L 799.47 671.35 L 797.21 673.37 L 794.98 675.38 L 792.78 677.39 L 790.61 679.40 L 788.47 681.42 L 786.37 683.44 L 784.30 685.47 L 782.28 687.52 L 780.29 689.58 L 778.35 691.65 L 776.44 693.75 L 774.58 695.86 L 772.77 698.00 L 770.99 700.17 L 769.26 702.36 L 767.56 704.58 L 765.91 706.83 L 764.30 709.12 L 762.72 711.43 L 761.18 713.78 L 759.67 716.16 L 758.20 718.58 L 756.75 721.04 L 755.33 723.52 L 753.94 726.05 L 752.56 728.60 L 751.21 731.19 L 749.87 733.82 L 748.54 736.47 L 747.22 739.15 L 745.91 741.86 L 744.60 744.60 L 743.29 747.36 L 741.98 750.15 L 740.65 752.95 L 739.32 755.77 L 737.97 758.60 L 736.60 761.44 L 735.21 764.29 L 733.79 767.14 L 732.35 770.00 L 730.88 772.85 L 729.37 775.69 L 727.82 778.52 L 726.23 781.33 L 724.61 784.12 L 722.93 786.90 L 721.22 789.64 L 719.45 792.35 L 717.63 795.02 L 715.76 797.66 L 713.83 800.25 L 711.85 802.79 L 709.82 805.28 L 707.73 807.71 L 705.58 810.08 L 703.37 812.39 L 701.11 814.63 L 698.79 816.81 L 696.41 818.90 L 693.97 820.93 L 691.48 822.87 L 688.94 824.73 L 686.34 826.51 L 683.68 828.20 L 680.98 829.81 L 678.23 831.32 L 675.43 832.75 L 672.58 834.08 L 669.69 835.32 L 666.76 836.47 L 663.80 837.53 L 660.79 838.49 L 657.75 839.37 L 654.68 840.15 L 651.58 840.84 L 648.46 841.45 L 645.31 841.96 L 642.15 842.39 L 638.96 842.74 L 635.76 843.01 L 632.55 843.21 L 629.33 843.32 L 626.10 843.37 L 622.87 843.35 L 619.63 843.26 L 616.40 843.11 L 613.17 842.91 L 609.94 842.65 L 606.73 842.35 L 603.52 842.00 L 600.32 841.61 L 597.13 841.18 L 593.96 840.73 L 590.81 840.25 L 587.67 839.75 L 584.55 839.23 L 581.44 838.70 L 578.36 838.16 L 575.29 837.62 L 572.25 837.09 L 569.23 836.56 L 566.22 836.03 L 563.24 835.53 L 560.28 835.04 L 557.33 834.57 L 554.41 834.14 L 551.50 833.73 L 548.61 833.35 L 545.74 833.01 L 542.88 832.70 L 540.03 832.44 L 537.20 832.22 L 534.38 832.05 L 531.57 831.92 L 528.76 831.84 L 525.96 831.81 L 523.17 831.82 L 520.38 831.89 L 517.59 832.01 L 514.79 832.18 L 512.00 832.40 L 509.20 832.67 L 506.40 832.98 L 503.59 833.34 L 500.76 833.75 L 497.93 834.19 L 495.09 834.68 L 492.23 835.21 L 489.36 835.77 L 486.47 836.36 L 483.57 836.98 L 480.65 837.63 L 477.71 838.29 L 474.75 838.98 L 471.77 839.68 L 468.77 840.39 L 465.75 841.10 L 462.71 841.81 L 459.65 842.52 L 456.57 843.22 L 453.48 843.91 L 450.36 844.58 L 447.23 845.23 L 444.08 845.84 L 440.91 846.43 L 437.74 846.98 L 434.55 847.49 L 431.34 847.95 L 428.13 848.37 L 424.92 848.72 L 421.70 849.02 L 418.47 849.26 L 415.24 849.43 L 412.02 849.53 L 408.80 849.55 L 405.59 849.50 L 402.38 849.37 L 399.19 849.16 L 396.01 848.86 L 392.85 848.48 L 389.70 848.01 L 386.58 847.44 L 383.49 846.78 L 380.42 846.04 L 377.38 845.19 L 374.38 844.25 L 371.40 843.22 L 368.47 842.10 L 365.58 840.88 L 362.72 839.56 L 359.91 838.16 L 357.15 836.66 L 354.43 835.07 L 351.76 833.40 L 349.14 831.64 L 346.57 829.80 L 344.05 827.87 L 341.58 825.87 L 339.17 823.79 L 336.81 821.65 L 334.51 819.43 L 332.25 817.15 L 330.06 814.81 L 327.91 812.41 L 325.82 809.95 L 323.78 807.45 L 321.79 804.90 L 319.84 802.32 L 317.95 799.69 L 316.10 797.03 L 314.30 794.35 L 312.54 791.64 L 310.81 788.91 L 309.13 786.16 L 307.48 783.41 L 305.86 780.64 L 304.27 777.88 L 302.71 775.11 L 301.17 772.35 L 299.66 769.59 L 298.16 766.85 L 296.67 764.12 L 295.19 761.41 L 293.72 758.72 L 292.26 756.05 L 290.80 753.40 L 289.33 750.79 L 287.86 748.20 L 286.37 745.64 L 284.88 743.12 L 283.37 740.63 L 281.84 738.17 L 280.30 735.75 L 278.72 733.37 L 277.12 731.03 L 275.50 728.71 L 273.84 726.44 L 272.15 724.20 L 270.42 722.00 L 268.66 719.83 L 266.86 717.70 L 265.02 715.59 L 263.14 713.52 L 261.23 711.47 L 259.27 709.46 L 257.27 707.46 L 255.23 705.49 L 253.14 703.54 L 251.02 701.61 L 248.86 699.69 L 246.66 697.79 L 244.43 695.90 L 242.16 694.01 L 239.86 692.12 L 237.53 690.24 L 235.17 688.36 L 232.79 686.47 L 230.38 684.58 L 227.95 682.67 L 225.51 680.75 L 223.06 678.82 L 220.60 676.87 L 218.13 674.90 L 215.66 672.90 L 213.20 670.88 L 210.74 668.83 L 208.29 666.75 L 205.86 664.63 L 203.46 662.49 L 201.07 660.30 L 198.72 658.09 L 196.40 655.83 L 194.12 653.53 L 191.88 651.19 L 189.70 648.81 L 187.56 646.39 L 185.48 643.92 L 183.46 641.42 L 181.51 638.87 L 179.62 636.27 L 177.80 633.64 L 176.07 630.96 L 174.41 628.24 L 172.83 625.48 L 171.34 622.69 L 169.93 619.85 L 168.62 616.98 L 167.40 614.08 L 166.27 611.14 L 165.24 608.17 L 164.30 605.16 L 163.47 602.14 L 162.73 599.08 L 162.09 596.01 L 161.55 592.91 L 161.11 589.79 L 160.77 586.66 L 160.52 583.51 L 160.38 580.35 L 160.32 577.18 L 160.36 574.00 L 160.50 570.82 L 160.72 567.64 L 161.03 564.45 L 161.42 561.27 L 161.89 558.09 L 162.44 554.92 L 163.06 551.76 L 163.76 548.60 L 164.51 545.46 L 165.34 542.33 L 166.22 539.21 L 167.15 536.11 L 168.13 533.03 L 169.16 529.97 L 170.22 526.92 L 171.32 523.90 L 172.45 520.89 L 173.61 517.91 L 174.78 514.94 L 175.97 512.00 L 177.18 509.08 L 178.38 506.18 L 179.59 503.30 L 180.80 500.43 L 182.00 497.59 L 183.19 494.77 L 184.36 491.96 L 185.51 489.17 L 186.64 486.39 L 187.74 483.63 L 188.81 480.88 L 189.84 478.14 L 190.84 475.41 L 191.80 472.68 L 192.72 469.97 L 193.60 467.25 L 194.43 464.54 L 195.22 461.83 L 195.95 459.11 L 196.64 456.39 L 197.28 453.67 L 197.87 450.94 L 198.41 448.20 L 198.90 445.45 L 199.35 442.69 L 199.74 439.91 L 200.09 437.12 L 200.40 434.31 L 200.66 431.48 L 200.88 428.64 L 201.06 425.77 L 201.21 422.88 L 201.32 419.97 L 201.41 417.04 L 201.47 414.09 L 201.50 411.11 L 201.52 408.11 L 201.52 405.09 L 201.50 402.05 L 201.48 398.98 L 201.46 395.89 L 201.44 392.79 L 201.42 389.66 L 201.41 386.51 L 201.42 383.35 L 201.44 380.18 L 201.49 376.99 L 201.57 373.79 L 201.67 370.58 L 201.82 367.36 L 202.00 364.14 L 202.23 360.91 L 202.50 357.69 L 202.83 354.47 L 203.21 351.26 L 203.65 348.05 L 204.16 344.86 L 204.73 341.68 L 205.37 338.52 L 206.08 335.38 L 206.87 332.26 L 207.73 329.18 L 208.67 326.12 L 209.69 323.10 L 210.79 320.11 L 211.98 317.16 L 213.25 314.26 L 214.60 311.40 L 216.04 308.59 L 217.56 305.83 L 219.17 303.12 L 220.86 300.47 L 222.63 297.88 L 224.49 295.35 L 226.43 292.87 L 228.45 290.47 L 230.55 288.12 L 232.72 285.84 L 234.97 283.63 L 237.29 281.49 L 239.67 279.41 L 242.13 277.40 L 244.65 275.47 L 247.22 273.60 L 249.86 271.79 L 252.55 270.06 L 255.29 268.39 L 258.07 266.79 L 260.90 265.25 L 263.77 263.77 L 266.67 262.35 L 269.61 261.00 L 272.57 259.69 L 275.56 258.45 L 278.57 257.25 L 281.59 256.10 L 284.63 255.00 L 287.67 253.94 L 290.73 252.92 L 293.78 251.94 L 296.83 250.98 L 299.88 250.06 L 302.92 249.16 L 305.96 248.28 L 308.98 247.41 L 311.98 246.57 L 314.97 245.73 L 317.93 244.89 L 320.88 244.06 L 323.80 243.22 L 326.70 242.38 L 329.57 241.53 L 332.41 240.67 L 335.22 239.79 L 338.01 238.89 L 340.76 237.96 L 343.49 237.01 L 346.18 236.03 L 348.85 235.02 L 351.48 233.97 L 354.09 232.89 L 356.66 231.77 L 359.22 230.61 L 361.74 229.40 L 364.24 228.15 L 366.71 226.86 L 369.17 225.52 L 371.60 224.14 L 374.02 222.71 L 376.42 221.24 L 378.80 219.72 L 381.17 218.16 L 383.53 216.55 L 385.89 214.90 L 388.24 213.21 L 390.58 211.48 L 392.93 209.71 L 395.27 207.91 L 397.62 206.08 L 399.98 204.21 L 402.34 202.33 L 404.71 200.42 L 407.10 198.49 L 409.50 196.54 L 411.92 194.58 L 414.36 192.62 L 416.81 190.65 L 419.29 188.69 L 421.79 186.73 L 424.32 184.78 L 426.87 182.84 L 429.45 180.93 L 432.06 179.04 L 434.70 177.18 L 437.37 175.35 L 440.06 173.56 L 442.79 171.82 L 445.54 170.12 L 448.33 168.47 L 451.15 166.89 L 453.99 165.36 L 456.87 163.90 L 459.77 162.51 L 462.70 161.19 L 465.65 159.95 L 468.63 158.79 L 471.63 157.72 L 474.66 156.73 L 477.71 155.83 L 480.77 155.03 L 483.85 154.32 L 486.95 153.70 L 490.05 153.19 L 493.17 152.77 L 496.30 152.45 L 499.44 152.24 L 502.58 152.13 L 505.72 152.12 L 508.86 152.21 L 512.00 152.40 L 515.14 152.69 L 518.26 153.08 L 521.39 153.57 L 524.50 154.16 L 527.59 154.84 L 530.68 155.61 L 533.74 156.48 L 536.79 157.42 L 539.82 158.46 L 542.83 159.57 L 545.82 160.76 L 548.78 162.02 L 551.72 163.35 L 554.64 164.75 L 557.52 166.20 L 560.39 167.72 L 563.22 169.28 L 566.03 170.89 L 568.80 172.55 L 571.56 174.24 L 574.28 175.97 L 576.98 177.72 L 579.65 179.50 L 582.29 181.29 L 584.92 183.10 L 587.51 184.92 L 590.09 186.74 L 592.64 188.56 L 595.18 190.38 L 597.69 192.19 L 600.19 193.99 L 602.68 195.77 L 605.15 197.53 L 607.61 199.27 L 610.07 200.98 L 612.51 202.66 L 614.95 204.30 L 617.39 205.91 L 619.84 207.48 L 622.28 209.01 L 624.72 210.50 L 627.18 211.95 L 629.64 213.35 L 632.11 214.71 L 634.60 216.02 L 637.10 217.28 L 639.62 218.50 L 642.16 219.66 L 644.71 220.79 L 647.29 221.87 L 649.89 222.90 L 652.52 223.89 L 655.17 224.84 L 657.85 225.75 L 660.56 226.63 L 663.29 227.47 L 666.05 228.27 L 668.84 229.05 L 671.66 229.80 L 674.51 230.53 L 677.38 231.24 L 680.28 231.93 L 683.21 232.61 L 686.16 233.28 L 689.14 233.94 L 692.14 234.61 L 695.16 235.27 L 698.20 235.94 L 701.26 236.63 L 704.33 237.32 L 707.41 238.04 L 710.51 238.78 L 713.61 239.54 L 716.71 240.34 L 719.82 241.16 L 722.92 242.03 L 726.02 242.94 L 729.11 243.89 L 732.19 244.89 L 735.25 245.94 L 738.29 247.04 L 741.31 248.21 L 744.31 249.43 L 747.27 250.71 L 750.20 252.05 L 753.09 253.47 L 755.94 254.94 L 758.74 256.49 L 761.50 258.11 L 764.20 259.80 L 766.85 261.56 L 769.45 263.39 L 771.98 265.29 L 774.44 267.27 L 776.85 269.31 L 779.18 271.43 L 781.44 273.62 L 783.62 275.88 L 785.74 278.21 L 787.77 280.60 L 789.73 283.06 L 791.60 285.58 L 793.40 288.16 L 795.11 290.81 L 796.75 293.51 L 798.30 296.26 L 799.77 299.06 L 801.15 301.92 L 802.46 304.82 L 803.69 307.76 L 804.84 310.74 L 805.91 313.76 L 806.90 316.81 L 807.83 319.89 L 808.68 323.00 L 809.46 326.13 L 810.18 329.28 L 810.83 332.45 L 811.42 335.63 L 811.96 338.82 L 812.44 342.02 L 812.87 345.22 L 813.26 348.43 L 813.60 351.64 L 813.91 354.84 L 814.18 358.03 L 814.42 361.22 L 814.64 364.39 L 814.83 367.56 L 815.01 370.70 L 815.17 373.84 L 815.33 376.95 L 815.49 380.04 L 815.64 383.11 L 815.80 386.16 L 815.96 389.19 L 816.14 392.19 L 816.34 395.17 L 816.56 398.13 L 816.80 401.06 L 817.06 403.97 L 817.36 406.86 L 817.69 409.72 L 818.06 412.56 L 818.46 415.37 L 818.91 418.17 L 819.40 420.95 L 819.93 423.70 L 820.51 426.44 L 821.13 429.17 L 821.81 431.88 L 822.53 434.58 L 823.30 437.26 L 824.12 439.94 L 824.99 442.61 L 825.91 445.28 L 826.87 447.94 L 827.88 450.60 L 828.94 453.26 L 830.03 455.92 L 831.17 458.59 L 832.35 461.26 L 833.56 463.94 L 834.80 466.63 L 836.07 469.34 L 837.37 472.05 L 838.69 474.78 L 840.03 477.52 L 841.38 480.28 L 842.75 483.06 L 844.12 485.86 L 845.49 488.68 L 846.86 491.52 L 848.22 494.38 L 849.57 497.26 L 850.91 500.17 L 852.22 503.09 L 853.50 506.04 L 854.76 509.01 Z" fill="none" stroke="#ffffff" stroke-width="24" stroke-linejoin="round"/>
<path d="M 764.26 512.00 L 764.67 514.20 L 765.00 516.42 L 765.26 518.63 L 765.44 520.85 L 765.54 523.07 L 765.57 525.29 L 765.51 527.51 L 765.38 529.72 L 765.17 531.92 L 764.88 534.12 L 764.51 536.31 L 764.06 538.49 L 763.54 540.66 L 762.95 542.81 L 762.28 544.95 L 761.54 547.07 L 760.73 549.17 L 759.85 551.26 L 758.91 553.32 L 757.90 555.36 L 756.84 557.38 L 755.72 559.37 L 754.54 561.35 L 753.32 563.29 L 752.04 565.22 L 750.73 567.11 L 749.37 568.99 L 747.98 570.84 L 746.55 572.66 L 745.10 574.46 L 743.62 576.23 L 742.11 577.98 L 740.59 579.71 L 739.06 581.42 L 737.52 583.10 L 735.96 584.77 L 734.41 586.42 L 732.86 588.05 L 731.31 589.66 L 729.77 591.26 L 728.23 592.85 L 726.72 594.42 L 725.22 595.99 L 723.74 597.55 L 722.28 599.10 L 720.84 600.65 L 719.44 602.20 L 718.06 603.74 L 716.71 605.29 L 715.40 606.85 L 714.12 608.41 L 712.88 609.97 L 711.67 611.55 L 710.50 613.14 L 709.37 614.74 L 708.27 616.36 L 707.22 617.99 L 706.20 619.65 L 705.22 621.32 L 704.28 623.01 L 703.37 624.73 L 702.50 626.46 L 701.66 628.23 L 700.86 630.01 L 700.09 631.83 L 699.35 633.66 L 698.63 635.53 L 697.94 637.42 L 697.28 639.34 L 696.63 641.28 L 696.01 643.25 L 695.40 645.25 L 694.80 647.26 L 694.21 649.31 L 693.63 651.37 L 693.06 653.46 L 692.48 655.56 L 691.91 657.69 L 691.33 659.83 L 690.74 661.98 L 690.14 664.15 L 689.53 666.32 L 688.90 668.51 L 688.25 670.70 L 687.58 672.89 L 686.88 675.08 L 686.16 677.27 L 685.40 679.45 L 684.62 681.63 L 683.79 683.79 L 682.93 685.94 L 682.03 688.07 L 681.09 690.18 L 680.10 692.27 L 679.07 694.33 L 677.99 696.36 L 676.87 698.35 L 675.70 700.31 L 674.47 702.23 L 673.20 704.11 L 671.88 705.94 L 670.50 707.73 L 669.07 709.47 L 667.60 711.15 L 666.07 712.79 L 664.49 714.36 L 662.86 715.88 L 661.18 717.33 L 659.46 718.73 L 657.68 720.06 L 655.86 721.32 L 654.00 722.52 L 652.09 723.66 L 650.15 724.73 L 648.16 725.73 L 646.14 726.66 L 644.08 727.53 L 641.98 728.33 L 639.86 729.06 L 637.71 729.73 L 635.53 730.34 L 633.32 730.88 L 631.10 731.35 L 628.85 731.77 L 626.59 732.13 L 624.32 732.43 L 622.03 732.68 L 619.73 732.88 L 617.42 733.03 L 615.11 733.13 L 612.80 733.18 L 610.48 733.20 L 608.17 733.18 L 605.86 733.12 L 603.56 733.04 L 601.26 732.92 L 598.97 732.78 L 596.69 732.62 L 594.42 732.45 L 592.17 732.26 L 589.93 732.06 L 587.70 731.85 L 585.49 731.64 L 583.30 731.44 L 581.12 731.23 L 578.97 731.04 L 576.83 730.85 L 574.71 730.68 L 572.60 730.53 L 570.52 730.40 L 568.45 730.29 L 566.41 730.21 L 564.37 730.16 L 562.36 730.13 L 560.36 730.14 L 558.38 730.19 L 556.41 730.27 L 554.45 730.39 L 552.50 730.54 L 550.57 730.74 L 548.65 730.98 L 546.73 731.27 L 544.82 731.59 L 542.91 731.96 L 541.01 732.37 L 539.11 732.82 L 537.22 733.31 L 535.32 733.84 L 533.42 734.41 L 531.51 735.02 L 529.60 735.67 L 527.69 736.35 L 525.77 737.06 L 523.83 737.80 L 521.89 738.57 L 519.94 739.37 L 517.98 740.19 L 516.00 741.02 L 514.01 741.88 L 512.00 742.74 L 509.98 743.62 L 507.94 744.50 L 505.89 745.38 L 503.82 746.26 L 501.73 747.14 L 499.63 748.01 L 497.51 748.87 L 495.38 749.71 L 493.23 750.52 L 491.06 751.32 L 488.88 752.09 L 486.69 752.82 L 484.48 753.52 L 482.26 754.18 L 480.03 754.80 L 477.80 755.37 L 475.55 755.89 L 473.30 756.36 L 471.04 756.78 L 468.78 757.14 L 466.51 757.43 L 464.25 757.66 L 461.99 757.83 L 459.73 757.93 L 457.47 757.96 L 455.23 757.92 L 452.99 757.80 L 450.76 757.61 L 448.55 757.35 L 446.35 757.01 L 444.17 756.59 L 442.00 756.10 L 439.86 755.54 L 437.74 754.89 L 435.64 754.17 L 433.57 753.38 L 431.53 752.51 L 429.51 751.57 L 427.52 750.56 L 425.56 749.48 L 423.64 748.34 L 421.74 747.12 L 419.88 745.85 L 418.06 744.51 L 416.27 743.12 L 414.51 741.67 L 412.79 740.17 L 411.10 738.62 L 409.45 737.02 L 407.84 735.38 L 406.25 733.70 L 404.71 731.98 L 403.19 730.24 L 401.71 728.46 L 400.26 726.66 L 398.84 724.83 L 397.44 722.99 L 396.08 721.13 L 394.74 719.26 L 393.42 717.38 L 392.13 715.50 L 390.86 713.62 L 389.60 711.74 L 388.36 709.86 L 387.14 708.00 L 385.92 706.14 L 384.72 704.30 L 383.52 702.47 L 382.33 700.67 L 381.14 698.88 L 379.95 697.12 L 378.76 695.39 L 377.56 693.68 L 376.36 692.00 L 375.14 690.35 L 373.92 688.74 L 372.68 687.15 L 371.42 685.60 L 370.15 684.08 L 368.85 682.60 L 367.54 681.15 L 366.20 679.73 L 364.83 678.34 L 363.44 676.99 L 362.02 675.68 L 360.57 674.39 L 359.09 673.13 L 357.58 671.91 L 356.04 670.71 L 354.47 669.53 L 352.86 668.38 L 351.23 667.26 L 349.56 666.15 L 347.86 665.06 L 346.13 663.99 L 344.37 662.94 L 342.58 661.89 L 340.76 660.85 L 338.92 659.82 L 337.05 658.80 L 335.16 657.77 L 333.25 656.75 L 331.32 655.72 L 329.37 654.68 L 327.41 653.64 L 325.44 652.58 L 323.46 651.51 L 321.47 650.43 L 319.48 649.32 L 317.49 648.19 L 315.51 647.05 L 313.53 645.87 L 311.56 644.67 L 309.60 643.44 L 307.66 642.18 L 305.74 640.88 L 303.85 639.56 L 301.98 638.19 L 300.14 636.80 L 298.33 635.36 L 296.57 633.89 L 294.84 632.37 L 293.16 630.82 L 291.52 629.23 L 289.94 627.60 L 288.40 625.93 L 286.93 624.22 L 285.51 622.47 L 284.15 620.68 L 282.85 618.85 L 281.62 616.99 L 280.46 615.09 L 279.36 613.15 L 278.33 611.19 L 277.38 609.18 L 276.50 607.15 L 275.69 605.09 L 274.95 602.99 L 274.29 600.88 L 273.70 598.73 L 273.19 596.57 L 272.75 594.38 L 272.39 592.17 L 272.09 589.95 L 271.87 587.71 L 271.72 585.46 L 271.63 583.20 L 271.62 580.93 L 271.66 578.65 L 271.77 576.37 L 271.94 574.08 L 272.17 571.80 L 272.45 569.51 L 272.79 567.23 L 273.17 564.95 L 273.60 562.67 L 274.07 560.41 L 274.58 558.15 L 275.13 555.90 L 275.70 553.67 L 276.31 551.44 L 276.94 549.23 L 277.59 547.03 L 278.25 544.85 L 278.93 542.68 L 279.62 540.53 L 280.32 538.40 L 281.01 536.28 L 281.71 534.17 L 282.39 532.09 L 283.07 530.02 L 283.74 527.96 L 284.39 525.92 L 285.02 523.90 L 285.63 521.88 L 286.22 519.88 L 286.78 517.90 L 287.30 515.92 L 287.80 513.96 L 288.26 512.00 L 288.68 510.05 L 289.07 508.11 L 289.42 506.17 L 289.73 504.24 L 289.99 502.31 L 290.22 500.38 L 290.40 498.45 L 290.54 496.51 L 290.63 494.58 L 290.69 492.64 L 290.70 490.69 L 290.67 488.74 L 290.60 486.78 L 290.50 484.80 L 290.35 482.82 L 290.17 480.82 L 289.96 478.82 L 289.71 476.79 L 289.44 474.76 L 289.13 472.70 L 288.81 470.63 L 288.46 468.55 L 288.10 466.45 L 287.72 464.33 L 287.33 462.19 L 286.93 460.04 L 286.52 457.87 L 286.12 455.68 L 285.71 453.48 L 285.32 451.26 L 284.93 449.03 L 284.55 446.78 L 284.20 444.52 L 283.86 442.25 L 283.55 439.97 L 283.26 437.68 L 283.01 435.38 L 282.79 433.08 L 282.61 430.77 L 282.47 428.46 L 282.38 426.15 L 282.33 423.84 L 282.34 421.53 L 282.40 419.23 L 282.51 416.94 L 282.68 414.66 L 282.92 412.39 L 283.21 410.14 L 283.57 407.90 L 284.00 405.68 L 284.49 403.48 L 285.05 401.31 L 285.68 399.16 L 286.38 397.04 L 287.15 394.95 L 287.99 392.89 L 288.90 390.87 L 289.88 388.88 L 290.93 386.92 L 292.05 385.01 L 293.24 383.14 L 294.49 381.31 L 295.81 379.52 L 297.19 377.77 L 298.64 376.07 L 300.14 374.42 L 301.70 372.81 L 303.32 371.24 L 304.99 369.73 L 306.72 368.26 L 308.49 366.84 L 310.31 365.46 L 312.16 364.13 L 314.06 362.84 L 316.00 361.60 L 317.96 360.40 L 319.96 359.25 L 321.99 358.13 L 324.03 357.05 L 326.10 356.01 L 328.19 355.01 L 330.29 354.04 L 332.40 353.10 L 334.51 352.19 L 336.64 351.31 L 338.76 350.45 L 340.88 349.61 L 343.00 348.80 L 345.11 348.00 L 347.21 347.21 L 349.30 346.43 L 351.37 345.67 L 353.43 344.90 L 355.47 344.14 L 357.49 343.38 L 359.49 342.62 L 361.46 341.85 L 363.41 341.07 L 365.34 340.28 L 367.23 339.47 L 369.10 338.65 L 370.94 337.81 L 372.76 336.95 L 374.54 336.06 L 376.30 335.15 L 378.03 334.21 L 379.72 333.24 L 381.40 332.24 L 383.04 331.21 L 384.66 330.14 L 386.25 329.04 L 387.82 327.90 L 389.37 326.73 L 390.90 325.52 L 392.41 324.27 L 393.89 322.99 L 395.37 321.67 L 396.83 320.32 L 398.27 318.93 L 399.71 317.50 L 401.13 316.05 L 402.56 314.56 L 403.97 313.04 L 405.39 311.49 L 406.80 309.91 L 408.22 308.31 L 409.64 306.69 L 411.07 305.05 L 412.50 303.40 L 413.95 301.72 L 415.41 300.04 L 416.88 298.35 L 418.37 296.66 L 419.87 294.96 L 421.40 293.27 L 422.95 291.58 L 424.51 289.90 L 426.11 288.24 L 427.72 286.59 L 429.37 284.96 L 431.03 283.36 L 432.73 281.79 L 434.46 280.24 L 436.21 278.73 L 437.99 277.26 L 439.80 275.84 L 441.64 274.46 L 443.50 273.12 L 445.40 271.84 L 447.32 270.62 L 449.27 269.45 L 451.25 268.35 L 453.25 267.31 L 455.28 266.33 L 457.34 265.42 L 459.41 264.59 L 461.51 263.82 L 463.62 263.13 L 465.76 262.52 L 467.91 261.98 L 470.08 261.51 L 472.27 261.13 L 474.46 260.82 L 476.67 260.59 L 478.88 260.44 L 481.10 260.37 L 483.33 260.37 L 485.56 260.45 L 487.79 260.61 L 490.03 260.84 L 492.26 261.14 L 494.48 261.51 L 496.71 261.95 L 498.92 262.46 L 501.13 263.03 L 503.33 263.66 L 505.52 264.35 L 507.69 265.10 L 509.85 265.89 L 512.00 266.74 L 514.13 267.64 L 516.25 268.57 L 518.35 269.55 L 520.43 270.55 L 522.50 271.60 L 524.54 272.66 L 526.57 273.75 L 528.58 274.87 L 530.57 275.99 L 532.55 277.13 L 534.50 278.28 L 536.44 279.43 L 538.37 280.58 L 540.27 281.73 L 542.17 282.87 L 544.04 284.00 L 545.91 285.12 L 547.76 286.22 L 549.60 287.31 L 551.43 288.37 L 553.26 289.40 L 555.07 290.41 L 556.88 291.39 L 558.69 292.33 L 560.50 293.24 L 562.30 294.12 L 564.11 294.95 L 565.92 295.75 L 567.73 296.51 L 569.55 297.23 L 571.37 297.91 L 573.21 298.54 L 575.05 299.14 L 576.91 299.69 L 578.78 300.20 L 580.66 300.68 L 582.56 301.11 L 584.48 301.51 L 586.41 301.87 L 588.36 302.19 L 590.34 302.48 L 592.33 302.74 L 594.34 302.97 L 596.37 303.17 L 598.42 303.35 L 600.50 303.51 L 602.59 303.65 L 604.71 303.77 L 606.85 303.88 L 609.00 303.98 L 611.18 304.07 L 613.37 304.16 L 615.58 304.25 L 617.81 304.34 L 620.05 304.44 L 622.30 304.55 L 624.57 304.67 L 626.85 304.81 L 629.13 304.97 L 631.42 305.15 L 633.72 305.37 L 636.01 305.61 L 638.31 305.88 L 640.60 306.19 L 642.89 306.54 L 645.17 306.93 L 647.44 307.37 L 649.70 307.85 L 651.94 308.38 L 654.16 308.97 L 656.37 309.61 L 658.55 310.30 L 660.70 311.05 L 662.82 311.85 L 664.91 312.72 L 666.97 313.64 L 669.00 314.63 L 670.98 315.68 L 672.92 316.79 L 674.82 317.96 L 676.67 319.19 L 678.48 320.49 L 680.24 321.84 L 681.94 323.26 L 683.60 324.73 L 685.20 326.27 L 686.75 327.85 L 688.24 329.50 L 689.67 331.20 L 691.05 332.95 L 692.37 334.75 L 693.63 336.60 L 694.84 338.49 L 695.98 340.43 L 697.07 342.41 L 698.11 344.43 L 699.08 346.48 L 700.01 348.57 L 700.87 350.69 L 701.69 352.83 L 702.46 355.00 L 703.17 357.19 L 703.84 359.40 L 704.47 361.63 L 705.05 363.87 L 705.59 366.12 L 706.10 368.38 L 706.57 370.64 L 707.00 372.91 L 707.41 375.17 L 707.79 377.44 L 708.15 379.70 L 708.49 381.95 L 708.81 384.19 L 709.12 386.42 L 709.41 388.64 L 709.70 390.85 L 709.99 393.04 L 710.27 395.21 L 710.56 397.36 L 710.86 399.49 L 711.16 401.60 L 711.47 403.69 L 711.81 405.76 L 712.15 407.81 L 712.52 409.83 L 712.91 411.83 L 713.33 413.80 L 713.78 415.76 L 714.25 417.69 L 714.76 419.60 L 715.30 421.48 L 715.88 423.35 L 716.49 425.20 L 717.15 427.03 L 717.84 428.84 L 718.57 430.63 L 719.34 432.41 L 720.15 434.18 L 721.00 435.93 L 721.89 437.67 L 722.82 439.41 L 723.79 441.14 L 724.80 442.86 L 725.84 444.58 L 726.92 446.29 L 728.03 448.01 L 729.18 449.73 L 730.35 451.45 L 731.55 453.17 L 732.78 454.90 L 734.03 456.64 L 735.30 458.39 L 736.59 460.15 L 737.89 461.92 L 739.20 463.71 L 740.51 465.51 L 741.83 467.32 L 743.15 469.16 L 744.47 471.01 L 745.78 472.88 L 747.08 474.77 L 748.36 476.68 L 749.62 478.60 L 750.86 480.55 L 752.07 482.52 L 753.26 484.51 L 754.41 486.52 L 755.52 488.55 L 756.58 490.60 L 757.61 492.67 L 758.58 494.76 L 759.50 496.86 L 760.37 498.98 L 761.18 501.12 L 761.93 503.27 L 762.61 505.44 L 763.23 507.61 L 763.78 509.80 Z" fill="none" stroke="#ffffff" stroke-width="22" stroke-linejoin="round"/>
<circle cx="512.0" cy="512.0" r="120" fill="none" stroke="#ffffff" stroke-width="26"/>
<circle cx="512.0" cy="512.0" r="34" fill="#c0603a"/>
</svg>